<svg width="520" height="120" viewBox="0 0 520 120" xmlns="http://www.w3.org/2000/svg" role="img" aria-label="Electra Hub logo">
  <defs>
    <linearGradient id="eh-frame-dark" x1="0" y1="0" x2="1" y2="1">
      <stop offset="0" stop-color="#0b7eea" />
      <stop offset="1" stop-color="#1bc8e4" />
    </linearGradient>
    <linearGradient id="eh-bolt-dark" x1="0" y1="0" x2="1" y2="1">
      <stop offset="0" stop-color="#86d6c8" />
      <stop offset="1" stop-color="#4cb6a9" />
    </linearGradient>
  </defs>

  <g transform="translate(10 12)">
    <path d="M8 8h84L82 26H34v20h36l-9 16H34v38H8z" fill="url(#eh-frame-dark)" />
    <path
      d="M16 78V63c0-12 10-22 22-22h16v-6h7v6h7v-6h7v6h4a6 6 0 1 1 0 12h-4v13h-7V53h-7v13h-7V53H38c-6 0-10 4-10 10v15z"
      fill="#ffffff"
    />
    <path d="M70 2 50 46h20L54 106 92 53H72z" fill="url(#eh-bolt-dark)" />
  </g>

  <text x="126" y="72" font-family="Avenir, Montserrat, Manrope, sans-serif" font-size="66" font-weight="700" fill="#27313f">
    Electra
  </text>
  <text x="348" y="72" font-family="Avenir, Montserrat, Manrope, sans-serif" font-size="66" font-weight="700" fill="#1688dd">
    Hub
  </text>
</svg>
